<?xml version="1.0" encoding="utf-8"?>
<svg id="master-artboard" viewBox="0 0 346.1301574707031 293.4864807128906" version="1.1" xmlns="http://www.w3.org/2000/svg" x="0px" y="0px" enable-background="new 0 0 1400 980" width="346.1301574707031px" height="293.4864807128906px"><rect id="ee-background" x="0" y="0" width="346.1301574707031" height="293.4864807128906" style="fill: white; fill-opacity: 0; pointer-events: none;"/>
<path d="M 0 0 H 1400 V 980 H 0 V 0 Z" fill="#FFFFFF" transform="matrix(1, 0, 0, 1, -22.14559555053711, -151.1111297607422)"/><path d="M355.2,162.4h-41.9c-17,0-31,12.8-32.4,29.8l-0.7,8.5H45.9c-3,0-5.9,1.5-7.7,3.9c-1.8,2.5-2.3,5.6-1.4,8.5l14.7,45.7&#10;&#9;&#9;&#9;c0,0,0,0.1,0,0.1l14.7,45.7c0,0,0,0.1,0,0.1l14.8,45.9c1.3,3.9,4.9,6.6,9,6.6h176.7l-2.1,25.1H116.3c-14.6,0-26.5,11.9-26.5,26.5&#10;&#9;&#9;&#9;s11.9,26.5,26.5,26.5s26.5-11.9,26.5-26.5c0-2.6-0.4-5.1-1.1-7.5H251c-0.7,2.4-1.1,4.9-1.1,7.5c0,14.6,11.9,26.5,26.5,26.5&#10;&#9;&#9;&#9;s26.5-11.9,26.5-26.5c0-12.1-8.1-22.3-19.1-25.5l16.2-189.5c0.6-7.1,6.4-12.4,13.5-12.4h41.9c5.2,0,9.5-4.3,9.5-9.5&#10;&#9;&#9;&#9;S360.5,162.4,355.2,162.4z M73.7,265.5h200.9l-2.3,26.8h-190L73.7,265.5z M278.5,219.7l-2.3,26.8H67.6l-8.6-26.8H278.5z&#10;&#9;&#9;&#9; M88.5,311.3h182.3l-2.3,26.8H97.1L88.5,311.3z M123.8,408.7c0,4.1-3.4,7.5-7.5,7.5s-7.5-3.4-7.5-7.5s3.4-7.5,7.5-7.5&#10;&#9;&#9;&#9;S123.8,404.6,123.8,408.7z M276.4,416.2c-4.1,0-7.5-3.4-7.5-7.5s3.4-7.5,7.5-7.5s7.5,3.4,7.5,7.5S280.5,416.2,276.4,416.2z" transform="matrix(1, 0, 0, 1, -22.14559555053711, -151.1111297607422)"/>
</svg>